<svg xmlns="http://www.w3.org/2000/svg" width="18" height="18" viewBox="0 0 18 18" fill="none">
  <path fillRule="evenodd" clipRule="evenodd" d="M17.16 9.19321C17.16 8.59048 17.1059 8.01094 17.0055 7.45457H8.99998V10.7425H13.5745C13.3775 11.805 12.7786 12.7053 11.8784 13.308V15.4407H14.6254C16.2327 13.9609 17.16 11.7819 17.16 9.19321Z" fill="#4285F4"/>
  <path fillRule="evenodd" clipRule="evenodd" d="M8.99999 17.5C11.295 17.5 13.2191 16.7389 14.6255 15.4407L11.8784 13.308C11.1173 13.818 10.1436 14.1193 8.99999 14.1193C6.78612 14.1193 4.91226 12.6241 4.24384 10.615H1.40407V12.8173C2.80271 15.5953 5.67726 17.5 8.99999 17.5Z" fill="#34A853"/>
  <path fillRule="evenodd" clipRule="evenodd" d="M4.24385 10.6151C4.07385 10.105 3.97726 9.56028 3.97726 9.00005C3.97726 8.43982 4.07385 7.89505 4.24385 7.38505V5.18277H1.40407C0.828387 6.33027 0.499977 7.62846 0.499977 9.00005C0.499977 10.3716 0.828387 11.6698 1.40407 12.8173L4.24385 10.6151Z" fill="#FBBC05"/>
  <path fillRule="evenodd" clipRule="evenodd" d="M8.99999 3.88072C10.2479 3.88072 11.3684 4.30958 12.2493 5.15186L14.6873 2.7139C13.2152 1.3423 11.2911 0.500031 8.99999 0.500031C5.67726 0.500031 2.80271 2.40481 1.40407 5.18277L4.24384 7.38504C4.91225 5.37595 6.78612 3.88072 8.99999 3.88072Z" fill="#EA4335"/>
</svg>